<svg xmlns="http://www.w3.org/2000/svg" xmlns:xlink="http://www.w3.org/1999/xlink">
    <symbol id="california" viewBox="0 0 17.86 20" xmlns="http://www.w3.org/2000/svg">
        <path fill="currentColor" d="M10.02,18.99l0.25,0.51l0.19,0.02l-0.35-0.53H10.02z M8.25,18.58l0.24,0.09v-0.05l-0.14-0.05H8.25zM10.32,18.46h0.19l-0.05-0.2L10,18.16L10.32,18.46z M7.01,17.04l0.18,0.28l0.24-0.14l-0.05-0.14H7.01z M6.66,16.99l0.24,0.05v-0.05l-0.14-0.07L6.66,16.99z M7.76,16.94l-0.22-0.02l0.27,0.21l0.46-0.14l-0.05-0.07L7.76,16.94z M4.55,8.28l0.29,0.22l-0.33-0.2L4.55,8.28z M0.34,0L0.32,0.44l0.12,0.21l0.18,0.53L0.32,2.59L0.18,2.74L0,3.33l0.02,0.4l0.64,0.53l0.28,0.64L0.85,5.56l0.16,0.58v0.36L2,7.54l0.46,0.74L2.22,8.07L2.18,8.58l0.12-0.19l0.69,0.53l0.13-0.13L2.99,8.26l0.22-0.02L3.6,8.48l0.24-0.22l0.19,0.22l0.39-0.22L4.29,8.48l0.17-0.13L4.41,8.51H3.62L3.49,8.48L3.26,8.51L3.21,8.6l0.14,0.36l0.22,0.16l0.26,0.58H3.67L3.24,9.4L3.21,8.96L2.99,9.04v0.55l0.36,0.85l0.32,0.35h0.38l0.25,0.27l-0.12,0.44l-0.2,0.05l0.15,0.67l0.62,0.64l0.41,0.69l0.67,0.51v0.44l0.46,0.12v1.31l0.24,0.14l1.58,0.09l0.58,0.29l0.31,0.35l0.58,0.2l0.54-0.05l0.21,0.58l0.46-0.02l1.13,0.76l0.44,0.59l0.14,0.86l0.22-0.09l0.05,0.14l-0.2-0.05l0.2,0.29l4.67-0.82l0.02-0.51l-0.36-0.16l-0.21-0.73l0.36-0.28l-0.05-0.89l0.67-0.82l-0.46-0.28l-0.6-1.06L7.19,6.39L7.12,2.32L7.09,0H0.34z"/>
    </symbol>
    <symbol id="person" viewBox="0 0 18.89 38" xmlns="http://www.w3.org/2000/svg">
        <path fill="currentColor" d="M5.19,4.25c0,2.35,1.9,4.25,4.25,4.25s4.25-1.9,4.25-4.25C13.69,1.9,11.79,0,9.44,0S5.19,1.9,5.19,4.25M1.62,25.69c0.03,0,0.06,0,0.09,0c0.83-0.05,1.47-0.76,1.42-1.6c-0.07-1.26-0.11-2.4-0.11-3.44c-0.01-4.57,0.66-5.2,1.31-6.54v21.56c0,1.29,1.05,2.33,2.33,2.33s2.33-1.04,2.33-2.33v-12.2h0.88v12.2c0,1.29,1.04,2.33,2.33,2.33c1.29,0,2.33-1.04,2.33-2.33V14.12c0.11,0.23,0.22,0.49,0.34,0.8c0.53,1.48,0.98,1.96,0.98,5.73c0,1.04-0.03,2.19-0.11,3.44c-0.05,0.83,0.59,1.55,1.42,1.6c0.03,0,0.06,0,0.09,0c0.79,0,1.46-0.62,1.51-1.42c0.08-1.31,0.11-2.51,0.11-3.62c-0.01-5.7-0.92-6.91-2.16-8.81c-0.62-0.94-1.35-1.54-2.02-1.88c-0.67-0.34-1.26-0.41-1.59-0.4c-0.12,0-0.21,0.01-0.27,0.02c0,0,0,0,0,0H6.04c0,0,0,0,0,0C5.98,9.57,5.89,9.56,5.77,9.56c-0.34,0-0.92,0.06-1.59,0.4c-1.02,0.5-2.11,1.61-2.88,3.56C0.52,15.48,0,16.37,0,20.65c0,1.1,0.04,2.31,0.11,3.62C0.16,25.07,0.83,25.69,1.62,25.69"/>
    </symbol>
</svg>